<svg xmlns="http://www.w3.org/2000/svg" width="32" height="51" fill="none" viewBox="0 0 32 51">
  <path fill="#E9ECF8" d="M0 3h31v48H0z"/>
  <path fill="#0A3871" fill-rule="evenodd" d="M23.396 23.268c-.044.269-.15.525-.31.748-.16.224-.37.41-.616.544-.493.308-.925.462-1.362.616-.931.31-1.91.62-2.947.98-1.092.36-2.072.721-2.946.982-1.09.36-2.126.67-3.11 1.03a9.25 9.25 0 0 0-2.07 1.188 8.578 8.578 0 0 0-1.528 1.753c-.437.72-.712 1.65-.712 2.732 0 2.168.545 3.817 1.638 4.848 1.09 1.086 3.11 1.6 6.106 1.6 3.054 0 5.126-.567 6.222-1.702 1.087-1.135 1.632-2.732 1.632-4.793V23.268h.003ZM15.54.418c5.348 0 9.274.982 11.78 2.994 2.51 1.962 3.765 4.485 3.765 7.475V36.37c0 1.03-.216 2.165-.597 3.402-.386 1.242-1.146 2.375-2.347 3.403-1.144 1.035-2.725 1.912-4.744 2.583-2.018.67-4.635 1.03-7.854 1.03-3.214 0-5.836-.36-7.852-1.03-2.015-.67-3.599-1.548-4.743-2.583a8.248 8.248 0 0 1-2.345-3.403C.22 38.538 0 37.402 0 36.372v-4.073c0-2.168.599-4.18 1.8-5.936 1.2-1.803 2.89-3.04 5.072-3.815 1.09-.36 2.345-.72 3.761-1.185 1.42-.467 2.726-.931 4.037-1.34a73.725 73.725 0 0 0 3.435-1.193 24.373 24.373 0 0 1 1.8-.616l.982-.464c.385-.207.763-.517 1.146-.93.38-.41.707-.873.982-1.39.291-.56.44-1.177.437-1.803v-1.652a4.076 4.076 0 0 0-.385-1.756c-.216-.62-.653-1.187-1.252-1.701-.6-.517-1.42-.929-2.399-1.242-.982-.305-2.288-.462-3.764-.462-3.054 0-5.072.571-6.163 1.754-.925 1.033-1.47 2.322-1.578 3.765 0 .31-.273.516-.602.516l-6.65.105a.61.61 0 0 1-.423-.166.57.57 0 0 1-.18-.406v-1.49c0-1.448.276-2.789.875-4.078.601-1.291 1.53-2.372 2.781-3.303 1.255-.927 2.893-1.699 4.854-2.216 1.91-.62 4.255-.876 6.98-.876h-.005Z" clip-rule="evenodd"/>
</svg>
